# xmcd
# Copyright (C) 1995-1998 Ti Kan
#
# Track frame offsets:
#       183
#       18470
#       38948
#       55293
#       74980
#       97825
#       121865
#       137923
#       156898
#       177305
#       195573
#       211813
#
# Disc length: 3218 seconds
#
# Revision: 2
# Processed by: cddbd v1.4PL0 Copyright (c) Steve Scherf et al.
# Submitted via: CD-Transfer v1.0
#
DISCID=ac0c900c
DTITLE=Steve Whitney Band - Boys In Blue
DYEAR=1992
DGENRE=
TTITLE0=Ac/Dc (Everybody Wants To Rock 'n' Roll)
TTITLE1=156...sexy Sue
TTITLE2=Watcha Gonna Do
TTITLE3=Join Together
TTITLE4=Make It Hot
TTITLE5=The Clown
TTITLE6=Hey Rasta Man
TTITLE7=Heavy Symphony
TTITLE8=Fighting To Be King
TTITLE9=Cat and Mouse
TTITLE10=Boys In Blue
TTITLE11=Ac/Dc-Medley
EXTD=
EXTT0=
EXTT1=
EXTT2=
EXTT3=
EXTT4=
EXTT5=
EXTT6=
EXTT7=
EXTT8=
EXTT9=
EXTT10=
EXTT11=
PLAYORDER=
